<?xml version="1.0" encoding="UTF-8"?>
<svg xmlns="http://www.w3.org/2000/svg" viewBox="0 0 841.9 595.3">
  <g fill="#61DAFB">
    <path d="M666.3 296.5c0 25.1-20.4 45.5-45.5 45.5s-45.5-20.4-45.5-45.5 20.4-45.5 45.5-45.5 45.5 20.4 45.5 45.5zm-45.5-60.5c-33.4 0-60.5 27.1-60.5 60.5s27.1 60.5 60.5 60.5 60.5-27.1 60.5-60.5-27.1-60.5-60.5-60.5z"/>
    <path d="M667.6 336.5c-7.1 0-13.6-4.6-15.9-11.3-2.3-6.7.2-14.1 6.1-18.1 5.9-4 13.7-3.7 19.1.7 5.4 4.4 7.2 12.1 4.2 18.2-3 6.1-9.7 10.5-16.5 10.5zm-1.3-24.5c-4.2 0-8.1 2.7-9.5 6.7-1.4 4 .2 8.5 3.7 10.7 3.5 2.2 8.1 1.9 11.2-.7 3.1-2.6 4.1-7.1 2.4-10.7-1.7-3.6-5.5-6-9.8-6z"/>
    <path d="M666.3 296.5c0 25.1-20.4 45.5-45.5 45.5s-45.5-20.4-45.5-45.5 20.4-45.5 45.5-45.5 45.5 20.4 45.5 45.5zm-45.5-60.5c-33.4 0-60.5 27.1-60.5 60.5s27.1 60.5 60.5 60.5 60.5-27.1 60.5-60.5-27.1-60.5-60.5-60.5z"/>
    <path d="M667.6 336.5c-7.1 0-13.6-4.6-15.9-11.3-2.3-6.7.2-14.1 6.1-18.1 5.9-4 13.7-3.7 19.1.7 5.4 4.4 7.2 12.1 4.2 18.2-3 6.1-9.7 10.5-16.5 10.5zm-1.3-24.5c-4.2 0-8.1 2.7-9.5 6.7-1.4 4 .2 8.5 3.7 10.7 3.5 2.2 8.1 1.9 11.2-.7 3.1-2.6 4.1-7.1 2.4-10.7-1.7-3.6-5.5-6-9.8-6z"/>
    <path d="M421.9 296.5c0 25.1-20.4 45.5-45.5 45.5s-45.5-20.4-45.5-45.5 20.4-45.5 45.5-45.5 45.5 20.4 45.5 45.5zm-45.5-60.5c-33.4 0-60.5 27.1-60.5 60.5s27.1 60.5 60.5 60.5 60.5-27.1 60.5-60.5-27.1-60.5-60.5-60.5z"/>
    <path d="M423.2 336.5c-7.1 0-13.6-4.6-15.9-11.3-2.3-6.7.2-14.1 6.1-18.1 5.9-4 13.7-3.7 19.1.7 5.4 4.4 7.2 12.1 4.2 18.2-3 6.1-9.7 10.5-16.5 10.5zm-1.3-24.5c-4.2 0-8.1 2.7-9.5 6.7-1.4 4 .2 8.5 3.7 10.7 3.5 2.2 8.1 1.9 11.2-.7 3.1-2.6 4.1-7.1 2.4-10.7-1.7-3.6-5.5-6-9.8-6z"/>
    <path d="M421.9 296.5c0 25.1-20.4 45.5-45.5 45.5s-45.5-20.4-45.5-45.5 20.4-45.5 45.5-45.5 45.5 20.4 45.5 45.5zm-45.5-60.5c-33.4 0-60.5 27.1-60.5 60.5s27.1 60.5 60.5 60.5 60.5-27.1 60.5-60.5-27.1-60.5-60.5-60.5z"/>
    <path d="M423.2 336.5c-7.1 0-13.6-4.6-15.9-11.3-2.3-6.7.2-14.1 6.1-18.1 5.9-4 13.7-3.7 19.1.7 5.4 4.4 7.2 12.1 4.2 18.2-3 6.1-9.7 10.5-16.5 10.5zm-1.3-24.5c-4.2 0-8.1 2.7-9.5 6.7-1.4 4 .2 8.5 3.7 10.7 3.5 2.2 8.1 1.9 11.2-.7 3.1-2.6 4.1-7.1 2.4-10.7-1.7-3.6-5.5-6-9.8-6z"/>
    <path d="M176.5 296.5c0 25.1-20.4 45.5-45.5 45.5s-45.5-20.4-45.5-45.5 20.4-45.5 45.5-45.5 45.5 20.4 45.5 45.5zm-45.5-60.5c-33.4 0-60.5 27.1-60.5 60.5s27.1 60.5 60.5 60.5 60.5-27.1 60.5-60.5-27.1-60.5-60.5-60.5z"/>
    <path d="M177.8 336.5c-7.1 0-13.6-4.6-15.9-11.3-2.3-6.7.2-14.1 6.1-18.1 5.9-4 13.7-3.7 19.1.7 5.4 4.4 7.2 12.1 4.2 18.2-3 6.1-9.7 10.5-16.5 10.5zm-1.3-24.5c-4.2 0-8.1 2.7-9.5 6.7-1.4 4 .2 8.5 3.7 10.7 3.5 2.2 8.1 1.9 11.2-.7 3.1-2.6 4.1-7.1 2.4-10.7-1.7-3.6-5.5-6-9.8-6z"/>
    <path d="M176.5 296.5c0 25.1-20.4 45.5-45.5 45.5s-45.5-20.4-45.5-45.5 20.4-45.5 45.5-45.5 45.5 20.4 45.5 45.5zm-45.5-60.5c-33.4 0-60.5 27.1-60.5 60.5s27.1 60.5 60.5 60.5 60.5-27.1 60.5-60.5-27.1-60.5-60.5-60.5z"/>
    <path d="M177.8 336.5c-7.1 0-13.6-4.6-15.9-11.3-2.3-6.7.2-14.1 6.1-18.1 5.9-4 13.7-3.7 19.1.7 5.4 4.4 7.2 12.1 4.2 18.2-3 6.1-9.7 10.5-16.5 10.5zm-1.3-24.5c-4.2 0-8.1 2.7-9.5 6.7-1.4 4 .2 8.5 3.7 10.7 3.5 2.2 8.1 1.9 11.2-.7 3.1-2.6 4.1-7.1 2.4-10.7-1.7-3.6-5.5-6-9.8-6z"/>
  </g>
</svg>
